<?xml version="1.0" encoding="utf-8"?>
<!-- Generator: Adobe Illustrator 19.0.0, SVG Export Plug-In . SVG Version: 6.00 Build 0)  -->
<svg version="1.1" class="mainIcon" id="alienship" xmlns="http://www.w3.org/2000/svg" xmlns:xlink="http://www.w3.org/1999/xlink" x="0px" y="0px"
	 viewBox="0 0 221.7 221.7" style="enable-background:new 0 0 221.7 221.7;" xml:space="preserve">
<style type="text/css">
	.st0{display:none;}
	.st1{display:inline;fill:none;stroke:#FFFFFF;stroke-width:2;stroke-miterlimit:10;}
	.st2{display:inline;}
	.st3{fill:none;stroke:#FFFFFF;stroke-width:2;stroke-miterlimit:10;}
	.st4{fill:#E5A913;}
	.st4:hover {display: block;
	fill:#303030;}
	.st5{fill:none;stroke:#FFFFFF;stroke-width:3;stroke-miterlimit:10;}

	#detail {
	display:block;
}

@media screen and (max-width:200px) {
#detail {
	display:none;
}
}

</style>
<g id="circle_background">
	<circle id="circle_background" class="st4" cx="110.7" cy="110.8" r="96.7"/>
</g>
<g id="circle">
	<circle id="circle" class="st5" cx="110.7" cy="110.8" r="85.4"/>
</g>
<g id="alienship">
	<path id="XMLID_63_" class="st3" d="M76.7,98c0,0,36,19.4,68.6-0.4c0,0,0-19.2-28.1-22.9S75,91.3,76.7,98z"/>
	<path id="XMLID_65_" class="st3" d="M76.4,98.2c0,0-39.1,16.3-27.3,27.3s78.2,10.7,78.2,10.7s55.4-1.1,46.1-18.8
		s-27.8-19.4-27.8-19.4S117.2,118.1,76.4,98.2z"/>
	<path id="XMLID_68_" class="st3" d="M49.7,114.5c0,0.2,66.8,32.4,122.6,0.3"/>
	<line id="XMLID_69_" class="st3" x1="92.8" y1="135.1" x2="84.5" y2="144.5"/>
	<line id="XMLID_70_" class="st3" x1="79.7" y1="145.7" x2="89.7" y2="145.7"/>
	<line id="XMLID_71_" class="st3" x1="110.7" y1="136.7" x2="110.7" y2="146.7"/>
	<line id="XMLID_72_" class="st3" x1="105.7" y1="147.7" x2="115.7" y2="147.7"/>
	<line id="XMLID_73_" class="st3" x1="130.4" y1="136.3" x2="138.3" y2="144.9"/>
	<line id="XMLID_74_" class="st3" x1="132.7" y1="145.7" x2="141.7" y2="145.7"/>
</g>
<g id="detail">
	<circle id="XMLID_64_" class="st3" cx="89.8" cy="116.1" r="4.9"/>
	<circle id="XMLID_66_" class="st3" cx="113.4" cy="118.8" r="4.9"/>
	<circle id="XMLID_67_" class="st3" cx="134" cy="116.5" r="4.9"/>
</g>
</svg>
