<?xml version="1.0" encoding="utf-8"?>
<!-- Generator: Adobe Illustrator 19.0.0, SVG Export Plug-In . SVG Version: 6.00 Build 0)  -->
<svg version="1.1" class="mainIcon" id="astronaut" xmlns="http://www.w3.org/2000/svg" xmlns:xlink="http://www.w3.org/1999/xlink" x="0px" y="0px"
	 viewBox="0 0 221.7 221.7" style="enable-background:new 0 0 221.7 221.7;" xml:space="preserve">
<style type="text/css">
	.st0{display:none;}
	.st1{display:inline;fill:none;stroke:#FFFFFF;stroke-width:2;stroke-miterlimit:10;}
	.st2{fill:none;stroke:#FFFFFF;stroke-width:2;stroke-miterlimit:10;}
	.st3{fill:#E5A913;}
	.st3:hover {display: block;
	fill:#303030;}
	.st4{fill:none;stroke:#FFFFFF;stroke-width:3;stroke-miterlimit:10;}


	#detail {
	display:block;
}

@media screen and (max-width:200px) {
#detail {
	display:none;
}
}

</style>
<g id="circle_background">
	<circle id="circle_background" class="st3" cx="110.7" cy="110.8" r="96.7"/>
</g>
<g id="circle">
	<circle id="circle" class="st4" cx="110.7" cy="110.8" r="85.4"/>
</g>
<g id="astronaut">
	<path id="XMLID_75_" class="st2" d="M65.6,121.6l-0.3,31.9c0,0,0,6.1,10.3,6.3c10.3,0.3,74.5,0,74.5,0s5.8,0.5,6.1-4.5
		c0.3-5,0-34.5,0-34.5s1.3-11.8-15.8-12.6s-59.5,0-59.5,0S67.5,108.7,65.6,121.6z"/>
	<path id="XMLID_77_" class="st2" d="M117.4,100.2h-10.8c-5.6,0-10.1-4.6-10.1-10.1v0c0-5.6,4.6-10.1,10.1-10.1h10.8
		c5.6,0,10.1,4.6,10.1,10.1v0C127.5,95.7,122.9,100.2,117.4,100.2z"/>
	<line id="XMLID_78_" class="st2" x1="81.7" y1="107.7" x2="81.7" y2="159.7"/>
	<line id="XMLID_79_" class="st2" x1="136.7" y1="107.7" x2="136.7" y2="159.7"/>
	<line id="XMLID_80_" class="st2" x1="138.7" y1="124.7" x2="155.7" y2="124.7"/>
	<line id="XMLID_81_" class="st2" x1="65.7" y1="124.7" x2="81.7" y2="124.7"/>
	<path id="XMLID_86_" class="st2" d="M90.9,80.4c0,0,6.4-13.8,16.1-13.8s9.5,0,9.5,0s9.1,0.9,15,13.2l-0.6,17.5c0,0-2,9.8-9.5,10.2
		c-7.5,0.4-20.7-0.3-20.7-0.3s-8.3-1.4-9.3-8.3C90.4,92.1,90.9,80.4,90.9,80.4z"/>
	<line id="XMLID_85_" class="st2" x1="103.5" y1="91" x2="109.1" y2="86.3"/>
	<line id="XMLID_87_" class="st2" x1="101.4" y1="87.6" x2="105.1" y2="84.6"/>
	<line id="XMLID_88_" class="st2" x1="126.7" y1="61.7" x2="126.7" y2="72.7"/>
	<path id="XMLID_90_" class="st2" d="M90.7,80.8V95c0,0-5.2,0.7-5.4-3.2l-0.3-7.2C84.9,84.6,85.7,79,90.7,80.8z"/>
	<path id="XMLID_89_" class="st2" d="M132,80.6l-0.7,14.2c0,0,6.1,0.9,6.5-2.9l0.2-7.2C138,84.7,138.1,79.2,132,80.6z"/>
</g>
<g id="detail">
	<rect id="XMLID_76_" x="96.7" y="120.5" class="st2" width="29.8" height="25.5"/>
	<line id="XMLID_82_" class="st2" x1="103.7" y1="127.7" x2="117.7" y2="127.7"/>
	<line id="XMLID_83_" class="st2" x1="103.7" y1="134.7" x2="117.7" y2="134.7"/>
	<line id="XMLID_84_" class="st2" x1="103.7" y1="140.7" x2="117.7" y2="140.7"/>
</g>
</svg>
