<?xml version="1.0" encoding="utf-8"?>
<!-- Generator: Adobe Illustrator 19.0.0, SVG Export Plug-In . SVG Version: 6.00 Build 0)  -->
<svg version="1.1" class="mainIcon" id="moon" xmlns="http://www.w3.org/2000/svg" xmlns:xlink="http://www.w3.org/1999/xlink" x="0px" y="0px"
	 viewBox="0 0 221.7 221.7" style="enable-background:new 0 0 221.7 221.7;" xml:space="preserve">
<style type="text/css">
	.st0{display:none;}
	.st1{display:inline;fill:none;stroke:#FFFFFF;stroke-width:2;stroke-miterlimit:10;}
	.st2{display:inline;}
	.st3{fill:none;stroke:#FFFFFF;stroke-width:2;stroke-miterlimit:10;}
	.st4{fill:#E5A913;}
	.st4:hover {display: block;
	fill:#303030;}
	.st5{fill:none;stroke:#FFFFFF;stroke-width:3;stroke-miterlimit:10;}

	#detail {
	display:block;
}

@media screen and (max-width:200px) {
#detail {
	display:none;
}
}

</style>
<g id="circle_background">
	<circle id="circle_background" class="st4" cx="110.7" cy="110.8" r="96.7"/>
</g>
<g id="circle">
	<circle id="circle" class="st5" cx="110.7" cy="110.8" r="85.4"/>
</g>
<g id="moon">
	<circle id="XMLID_2_" class="st3" cx="110.8" cy="110.8" r="48"/>
</g>
<g id="detail">
	<circle id="XMLID_3_" class="st3" cx="114" cy="86.3" r="7.5"/>
	<circle id="XMLID_4_" class="st3" cx="132.7" cy="137" r="5.9"/>
	<path id="XMLID_6_" class="st3" d="M105,102.8c0,0,3.7,11.2,11.2,11.2c0,0,3.1,18.3-14.4,17.3c0,0-15.1-2.3-10.5-19.5
		C91.2,111.9,94.3,103,105,102.8z"/>
	<path id="XMLID_5_" class="st3" d="M157,100.4c0,0,1.3-6.3-8.4-18.5c0,0-15.2,3.6-9.9,16.4C144,111.1,157,100.4,157,100.4z"/>
	<path id="XMLID_7_" class="st3" d="M80.6,74.4c0,0-11.6,9.1-13.9,18c0,0,8,6.4,15.1-0.1C88.8,85.8,80.6,74.4,80.6,74.4z"/>
	<path id="XMLID_8_" class="st3" d="M67.6,130.4c0,0,6,11.7,8.8,13.6c0,0,6.3-4.7,3.7-11.2C77.6,126.3,67.6,130.4,67.6,130.4z"/>
</g>
</svg>
