<?xml version="1.0" encoding="utf-8"?>
<!-- Generator: Adobe Illustrator 19.0.0, SVG Export Plug-In . SVG Version: 6.00 Build 0)  -->
<svg version="1.1" class="mainIcon" id="planet" xmlns="http://www.w3.org/2000/svg" xmlns:xlink="http://www.w3.org/1999/xlink" x="0px" y="0px"
	 viewBox="0 0 221.7 221.7" style="enable-background:new 0 0 221.7 221.7;" xml:space="preserve">
<style type="text/css">
	.st0{display:none;}
	.st1{display:inline;fill:none;stroke:#FFFFFF;stroke-width:2;stroke-miterlimit:10;}
	.st2{display:inline;}
	.st3{fill:none;stroke:#FFFFFF;stroke-width:2;stroke-miterlimit:10;}
	.st4{fill:#E5A913;}
	.st4:hover {display: block;
	fill:#303030;}
	.st5{fill:none;stroke:#FFFFFF;stroke-width:3;stroke-miterlimit:10;}

	#detail {
	display:block;
}

@media screen and (max-width:200px) {
#detail {
	display:none;
}
}

</style>
<g id="circle_background">
	<circle id="circle_background" class="st4" cx="110.7" cy="110.8" r="96.7"/>
</g>
<g id="circle">
	<circle id="circle" class="st5" cx="110.7" cy="110.8" r="85.4"/>
</g>
<g id="planet">
	<circle id="XMLID_60_" class="st3" cx="110.6" cy="110.5" r="34.2"/>
	<path id="XMLID_61_" class="st3" d="M76.7,106.7v9.3c0,0-27.2,24.6,8.4,17c30.6-6.5,56.3-25.5,63.4-31.1c1.7-1.3,4.4-4.1,5.8-6.1
		c1.6-2.4,1.8-6-1.9-7.8c-1.3-0.6-2.8-0.9-4.3-0.8l-10.8,0.5l-7-6.6c0,0,21.9-10.9,34.6-4.3c4,2.1,5.7,5,6.3,7.8
		c0.9,4.2-0.6,8.6-3.7,11.6c-3,2.9-8.7,7.9-19.4,16.1c-11,8.5-47.6,25.8-60.2,28.7c-2.8,0.6-6,1.9-8.9,2.5
		c-6.9,1.4-19.4,3.3-25.6-0.4c-7.2-4.4-6.1-12.6,1.5-20.5S76.7,106.7,76.7,106.7z"/>
</g>
<g id="detail">
	<path id="XMLID_62_" class="st3" d="M92.3,94.1c-5.8,7-6.3,16.2-0.9,20.7"/>
</g>
</svg>
