<?xml version="1.0" encoding="utf-8"?>
<!-- Generator: Adobe Illustrator 19.0.0, SVG Export Plug-In . SVG Version: 6.00 Build 0)  -->
<svg version="1.1" class="mainIcon" id="satellite" xmlns="http://www.w3.org/2000/svg" xmlns:xlink="http://www.w3.org/1999/xlink" x="0px" y="0px"
	 viewBox="0 0 221.7 221.7" style="enable-background:new 0 0 221.7 221.7;" xml:space="preserve">
<style type="text/css">
	.st0{display:none;}
	.st1{display:inline;fill:none;stroke:#FFFFFF;stroke-width:2;stroke-miterlimit:10;}
	.st2{display:inline;}
	.st3{fill:none;stroke:#FFFFFF;stroke-width:2;stroke-miterlimit:10;}
	.st4{fill:#E5A913;}
	.st4:hover {display: block;
	fill:#303030;}
	.st5{fill:none;stroke:#FFFFFF;stroke-width:3;stroke-miterlimit:10;}

	#detail {
	display:block;
}

@media screen and (max-width:200px) {
#detail {
	display:none;
}
}

</style>
<g id="circle_background">
	<circle id="circle_background" class="st4" cx="110.7" cy="110.8" r="96.7"/>
</g>
<g id="circle">
	<circle id="circle" class="st5" cx="110.7" cy="110.8" r="85.4"/>
</g>
<g id="satellite">
	
		<ellipse id="XMLID_91_" transform="matrix(-0.7134 -0.7007 0.7007 -0.7134 112.9276 239.2717)" class="st3" cx="105.4" cy="96.5" rx="13" ry="45.2"/>
	<path id="XMLID_92_" class="st3" d="M76.4,73.3L76.4,73.3c-3,0-5.5-2.5-5.5-5.5v0c0-3,2.5-5.5,5.5-5.5h0c3,0,5.5,2.5,5.5,5.5v0
		C82,70.8,79.5,73.3,76.4,73.3z"/>
	<path id="XMLID_95_" class="st3" d="M144.8,58.2c0,0,17.6,43.4,5.2,62.5s-26.8,25.9-48,23.4c-21.2-2.5-34.5-9.9-34.5-9.9
		s-3.7-20,18.2-43.1S121.7,56.1,144.8,58.2z"/>
	<polygon id="XMLID_93_" class="st3" points="138.2,143.2 144.7,143 153.6,163.2 131.1,163.7 	"/>
	<path id="XMLID_96_" class="st3" d="M132.9,139.2c0,0,11.4-8.3,14.8-14c0,0,6.6,7.9,2.6,13.1s-9.4,5.5-12.3,4.5
		c-0.1,0-0.2-0.1-0.3-0.1C134.9,141.5,132.9,139.2,132.9,139.2z"/>
	<path id="XMLID_94_" class="st3" d="M79.3,73.7l3.1-3.5l28.3,22.6c0,0,2,10.4-8.1,8.9L79.3,73.7z"/>
</g>
<g id="detail">
	<path id="XMLID_97_" class="st3" d="M144.1,87.7c1.7,9.2,0.9,17.2-5.2,27"/>
</g>
</svg>
