<?xml version="1.0" encoding="utf-8"?>
<!-- Generator: Adobe Illustrator 19.0.0, SVG Export Plug-In . SVG Version: 6.00 Build 0)  -->
<svg version="1.1" class="mainIcon" id="stars" xmlns="http://www.w3.org/2000/svg" xmlns:xlink="http://www.w3.org/1999/xlink" x="0px" y="0px"
	 viewBox="0 0 221.7 221.7" style="enable-background:new 0 0 221.7 221.7;" xml:space="preserve">
<style type="text/css">
	.st0{display:none;}
	.st1{display:inline;fill:none;stroke:#FFFFFF;stroke-width:2;stroke-miterlimit:10;}
	.st2{display:inline;}
	.st3{fill:none;stroke:#FFFFFF;stroke-width:2;stroke-miterlimit:10;}
	.st4{fill:#E5A913;}
	.st4:hover {display: block;
	fill:#303030;}
	.st5{fill:none;stroke:#FFFFFF;stroke-width:3;stroke-miterlimit:10;}

	#detail {
	display:block;
}

@media screen and (max-width:200px) {
#detail {
	display:none;
}
}

</style>
<g id="circle_background">
	<circle id="circle_background" class="st4" cx="110.7" cy="110.8" r="96.7"/>
</g>
<g id="circle">
	<circle id="circle" class="st5" cx="110.7" cy="110.8" r="85.4"/>
</g>
<g id="stars">
	<path id="XMLID_24_" class="st3" d="M65,121.4c0,0,10.2-0.8,13.4-4.2c3.2-3.4,6.8-17.8,6.8-17.8s2.2,15.2,6,16.8
		c3.8,1.6,13,4.2,13,4.2s-12.6,2.6-14,6.2c-1.4,3.6-4.2,17-4.2,17s-1.8-14.6-5.2-16.2C77.4,125.8,65,121.4,65,121.4z"/>
	<path id="XMLID_25_" class="st3" d="M98.6,102.4c0,0,15.3-1.2,20.1-6.3c4.8-5.1,10.2-26.7,10.2-26.7s3.3,22.8,9,25.2
		c5.7,2.4,19.5,6.3,19.5,6.3s-18.9,3.9-21,9.3s-6.3,25.5-6.3,25.5s-2.7-21.9-7.8-24.3C117.2,109,98.6,102.4,98.6,102.4z"/>
</g>
<g id="detail">
	<line id="XMLID_26_" class="st3" x1="70.7" y1="80.7" x2="81.7" y2="80.7"/>
	<line id="XMLID_27_" class="st3" x1="94.7" y1="78.7" x2="104.7" y2="78.7"/>
	<line id="XMLID_28_" class="st3" x1="80.7" y1="73.7" x2="85.7" y2="73.7"/>
	<line id="XMLID_29_" class="st3" x1="88.7" y1="85.7" x2="93.7" y2="85.7"/>
	<line id="XMLID_30_" class="st3" x1="59.7" y1="109.7" x2="64.7" y2="109.7"/>
	<line id="XMLID_31_" class="st3" x1="51.7" y1="117.7" x2="57.7" y2="117.7"/>
	<line id="XMLID_32_" class="st3" x1="99.7" y1="138.7" x2="104.7" y2="138.7"/>
	<line id="XMLID_33_" class="st3" x1="94.7" y1="152.7" x2="99.7" y2="152.7"/>
	<line id="XMLID_34_" class="st3" x1="104.7" y1="146.7" x2="115.7" y2="146.7"/>
	<line id="XMLID_35_" class="st3" x1="152.7" y1="131.7" x2="163.7" y2="131.7"/>
	<line id="XMLID_36_" class="st3" x1="144.7" y1="126.7" x2="152.7" y2="126.7"/>
	<line id="XMLID_37_" class="st3" x1="141.7" y1="139.7" x2="146.7" y2="139.7"/>
	<line id="XMLID_38_" class="st3" x1="165.7" y1="125.7" x2="170.7" y2="125.7"/>
	<line id="XMLID_39_" class="st3" x1="147.7" y1="83.7" x2="158.7" y2="83.7"/>
	<line id="XMLID_40_" class="st3" x1="158.7" y1="89.7" x2="166.7" y2="89.7"/>
</g>
</svg>
